<?xml version="1.0" encoding="UTF-8"?><svg id="Camada_2" xmlns="http://www.w3.org/2000/svg" viewBox="0 0 382.95 83.43"><defs><style>.cls-1{fill:#004241;}</style></defs><g id="Camada_1"><path class="cls-1" d="M35.98,28.91l20.95-15.78-14.21-9.66C39.12,1.03,35-.09,30.93,0l5.05,28.91Z"/><path class="cls-1" d="M43.69,73.01l1.82,10.42h11.74c10.46,0,19.17-8.01,20.04-18.43l.94-11.18-34.54,19.19Z"/><path class="cls-1" d="M36.92,34.29l5.88,33.65,35.92-19.96.61-7.25c.61-7.23-2.73-14.24-8.74-18.32l-9.42-6.4-24.25,18.27Z"/><path class="cls-1" d="M.45,39.02l34.04,9.59L26.12.71c-4.05,1.1-7.78,3.47-10.55,7.01l-11.31,14.46C.85,26.55-.61,32.13.23,37.61l.21,1.41Z"/><path class="cls-1" d="M35.42,53.91L1.25,44.29l3.37,22.06c1.5,9.82,9.95,17.08,19.88,17.08h16.08l-5.16-29.52Z"/><polygon class="cls-1" points="128.66 28.35 128.66 23.78 103.07 23.78 103.07 59.82 103.14 59.82 128.66 59.82 128.66 55.25 107.91 55.25 107.91 44.01 127.73 44.01 127.73 39.49 107.91 39.49 107.91 28.35 128.66 28.35"/><path class="cls-1" d="M146.87,60.56c-2.21,0-4.19-.44-5.92-1.31-1.74-.88-3.1-2.07-4.1-3.6-1-1.53-1.5-3.27-1.5-5.25s.39-3.6,1.17-5.15c.78-1.55,2-2.86,3.65-3.94,1.65-1.08,3.75-1.84,6.31-2.29l13.67-2.36v4.58l-12.5,2.15c-2.52.45-4.33,1.28-5.44,2.49-1.11,1.21-1.66,2.65-1.66,4.31s.62,2.98,1.86,4.11c1.24,1.12,2.83,1.68,4.78,1.68,2.39,0,4.47-.53,6.25-1.58,1.78-1.05,3.17-2.48,4.17-4.27,1-1.79,1.5-3.79,1.5-5.99v-6.39c0-2.83-.78-5.04-2.34-6.63-1.56-1.59-3.75-2.39-6.57-2.39h-11.59v-5.05h11.59c2.91,0,5.38.56,7.42,1.68,2.04,1.12,3.61,2.73,4.72,4.81,1.11,2.09,1.66,4.61,1.66,7.57v22.01h-4.88v-7.2l.72.74c-.61,1.35-1.55,2.57-2.83,3.67-1.28,1.1-2.78,1.97-4.49,2.62-1.71.65-3.59.98-5.63.98Z"/><path class="cls-1" d="M186.12,60.56c-3.34,0-6.27-.88-8.79-2.62-2.52-1.75-4.34-4.13-5.47-7.13l4.1-2.02c1,2.2,2.4,3.95,4.2,5.25,1.8,1.3,3.79,1.95,5.96,1.95s3.84-.53,5.27-1.58c1.43-1.05,2.15-2.43,2.15-4.14,0-1.26-.35-2.25-1.04-2.99-.69-.74-1.5-1.31-2.41-1.72-.91-.4-1.71-.7-2.41-.87l-5.01-1.48c-3.21-.94-5.53-2.26-6.97-3.97-1.43-1.7-2.15-3.68-2.15-5.92,0-2.11.52-3.95,1.56-5.52,1.04-1.57,2.45-2.78,4.23-3.63,1.78-.85,3.75-1.28,5.92-1.28,2.95,0,5.63.8,8.04,2.39,2.41,1.59,4.11,3.8,5.11,6.63l-4.17,2.02c-.87-2.02-2.12-3.6-3.74-4.74s-3.44-1.72-5.44-1.72-3.52.52-4.69,1.55c-1.17,1.03-1.76,2.33-1.76,3.9,0,1.21.3,2.18.91,2.89.61.72,1.31,1.26,2.12,1.61.8.36,1.51.63,2.12.81l5.79,1.75c2.82.85,5.02,2.18,6.61,3.97,1.58,1.79,2.38,3.9,2.38,6.33,0,1.98-.53,3.75-1.59,5.32-1.06,1.57-2.53,2.79-4.39,3.67-1.87.88-4.01,1.31-6.44,1.31Z"/><polygon class="cls-1" points="225.97 23.68 217.01 38.38 208.01 23.68 202.53 23.68 214.57 43.29 214.57 59.72 214.64 59.72 219.41 59.72 219.41 43.29 231.45 23.68 225.97 23.68"/><path class="cls-1" d="M248.45,59.75V23.68h36c2.91,0,5.38.56,7.42,1.68,2.04,1.12,3.61,2.73,4.72,4.81,1.11,2.09,1.66,4.61,1.66,7.57v22.01h-4.88v-22.01c0-2.83-.78-5.04-2.34-6.63-1.56-1.59-3.75-2.39-6.57-2.39h-8.66v31.02h-4.88v-31.02h-17.58v31.02h-4.88Z"/><path class="cls-1" d="M317.64,60.56c-2.21,0-4.19-.44-5.92-1.31-1.74-.88-3.1-2.07-4.1-3.6-1-1.53-1.5-3.27-1.5-5.25s.39-3.6,1.17-5.15c.78-1.55,2-2.86,3.65-3.94,1.65-1.08,3.75-1.84,6.31-2.29l13.67-2.36v4.58l-12.5,2.15c-2.52.45-4.33,1.28-5.44,2.49-1.11,1.21-1.66,2.65-1.66,4.31s.62,2.98,1.86,4.11c1.24,1.12,2.83,1.68,4.78,1.68,2.39,0,4.47-.53,6.25-1.58,1.78-1.05,3.17-2.48,4.17-4.27,1-1.79,1.5-3.79,1.5-5.99v-6.39c0-2.83-.78-5.04-2.34-6.63-1.56-1.59-3.75-2.39-6.57-2.39h-11.59v-5.05h11.59c2.91,0,5.38.56,7.42,1.68,2.04,1.12,3.61,2.73,4.72,4.81s1.66,4.61,1.66,7.57v22.01h-4.88v-7.2l.72.74c-.61,1.35-1.55,2.57-2.83,3.67-1.28,1.1-2.78,1.97-4.49,2.62-1.71.65-3.59.98-5.63.98Z"/><path class="cls-1" d="M344.78,59.75V23.68h4.88v31.36h10.54v4.71h-15.42Z"/><path class="cls-1" d="M367.53,59.75V23.68h4.88v31.36h10.54v4.71h-15.42Z"/></g></svg>