<svg xmlns="http://www.w3.org/2000/svg" xmlns:xlink="http://www.w3.org/1999/xlink" width="40" zoomAndPan="magnify" viewBox="0 0 30 30.000001" height="40" preserveAspectRatio="xMidYMid meet" version="1.0"><defs><clipPath id="7dc589a96a"><path d="M 4.695312 3.347656 L 25.019531 3.347656 L 25.019531 25.847656 L 4.695312 25.847656 Z M 4.695312 3.347656 " clip-rule="nonzero"/></clipPath></defs><g clip-path="url(#7dc589a96a)"><path fill="#00d1ff" d="M 14.421875 11.5 C 14.421875 11.933594 14.144531 12.300781 13.761719 12.4375 L 13.761719 12.726562 C 13.761719 12.921875 13.605469 13.074219 13.414062 13.074219 C 13.21875 13.074219 13.0625 12.921875 13.0625 12.726562 L 13.0625 12.472656 C 12.832031 12.421875 12.617188 12.289062 12.472656 12.089844 C 12.359375 11.9375 12.390625 11.71875 12.546875 11.605469 C 12.703125 11.488281 12.917969 11.523438 13.035156 11.675781 C 13.09375 11.753906 13.179688 11.800781 13.273438 11.800781 L 13.425781 11.800781 C 13.589844 11.800781 13.722656 11.667969 13.722656 11.5 C 13.722656 11.335938 13.589844 11.203125 13.425781 11.203125 L 13.347656 11.203125 C 13.324219 11.203125 13.296875 11.199219 13.273438 11.195312 C 12.785156 11.132812 12.40625 10.714844 12.40625 10.207031 C 12.40625 9.777344 12.679688 9.410156 13.0625 9.269531 L 13.0625 8.980469 C 13.0625 8.789062 13.21875 8.632812 13.414062 8.632812 C 13.605469 8.632812 13.761719 8.789062 13.761719 8.980469 L 13.761719 9.234375 C 13.996094 9.285156 14.207031 9.421875 14.351562 9.617188 C 14.464844 9.773438 14.433594 9.988281 14.277344 10.105469 C 14.125 10.21875 13.90625 10.183594 13.789062 10.03125 C 13.734375 9.953125 13.644531 9.910156 13.550781 9.910156 L 13.402344 9.910156 C 13.238281 9.910156 13.101562 10.042969 13.101562 10.207031 C 13.101562 10.367188 13.238281 10.503906 13.402344 10.503906 L 13.476562 10.503906 C 13.503906 10.503906 13.527344 10.507812 13.550781 10.515625 C 14.042969 10.578125 14.421875 10.996094 14.421875 11.5 Z M 10.671875 23.257812 L 10.542969 23.328125 L 10.828125 23.824219 C 10.914062 23.976562 10.9375 24.15625 10.890625 24.324219 C 10.84375 24.492188 10.738281 24.632812 10.585938 24.71875 L 9.074219 25.589844 C 8.976562 25.648438 8.863281 25.675781 8.75 25.675781 C 8.695312 25.675781 8.636719 25.667969 8.582031 25.652344 C 8.410156 25.609375 8.269531 25.5 8.183594 25.347656 L 4.78125 19.441406 C 4.601562 19.132812 4.707031 18.730469 5.019531 18.550781 L 6.535156 17.679688 C 6.84375 17.5 7.246094 17.609375 7.425781 17.917969 L 7.726562 18.441406 L 10.550781 16.902344 C 11.628906 16.316406 12.765625 16.210938 13.929688 16.585938 L 17.316406 17.675781 L 18.949219 16.789062 C 19.304688 16.597656 19.714844 16.554688 20.101562 16.667969 C 20.488281 16.785156 20.808594 17.042969 21.003906 17.398438 C 21.015625 17.417969 21.027344 17.441406 21.039062 17.464844 L 21.960938 16.960938 C 22.3125 16.769531 22.722656 16.726562 23.113281 16.839844 C 23.5 16.957031 23.820312 17.214844 24.011719 17.566406 C 24.414062 18.300781 24.140625 19.222656 23.40625 19.621094 L 16.628906 23.308594 C 16.140625 23.574219 15.632812 23.707031 15.117188 23.707031 C 14.785156 23.707031 14.449219 23.65625 14.109375 23.546875 L 12.644531 23.074219 C 11.964844 22.855469 11.300781 22.914062 10.671875 23.257812 Z M 18.199219 17.992188 C 18.476562 18.144531 18.699219 18.378906 18.835938 18.664062 L 20.421875 17.796875 C 20.414062 17.773438 20.402344 17.753906 20.390625 17.730469 C 20.285156 17.539062 20.113281 17.398438 19.902344 17.335938 C 19.695312 17.277344 19.472656 17.296875 19.28125 17.402344 Z M 12.859375 22.410156 L 14.324219 22.882812 C 15.003906 23.101562 15.667969 23.039062 16.296875 22.695312 L 23.074219 19.007812 C 23.46875 18.792969 23.617188 18.296875 23.402344 17.902344 C 23.296875 17.710938 23.125 17.570312 22.914062 17.511719 C 22.703125 17.449219 22.484375 17.472656 22.292969 17.574219 L 18.984375 19.375 C 18.980469 19.511719 18.953125 19.648438 18.910156 19.78125 C 18.789062 20.164062 18.523438 20.476562 18.164062 20.664062 C 17.945312 20.773438 17.707031 20.832031 17.472656 20.832031 C 17.316406 20.832031 17.160156 20.808594 17.007812 20.757812 C 16.441406 20.574219 15.875 20.394531 15.308594 20.210938 C 14.742188 20.027344 14.175781 19.84375 13.609375 19.664062 C 13.425781 19.605469 13.324219 19.40625 13.382812 19.222656 C 13.441406 19.039062 13.636719 18.941406 13.820312 19 C 14.386719 19.179688 14.953125 19.363281 15.523438 19.546875 C 16.089844 19.730469 16.65625 19.910156 17.222656 20.09375 C 17.429688 20.160156 17.648438 20.140625 17.84375 20.042969 C 18.039062 19.941406 18.183594 19.773438 18.25 19.566406 C 18.277344 19.472656 18.292969 19.378906 18.289062 19.28125 C 18.289062 19.269531 18.289062 19.261719 18.289062 19.25 C 18.285156 19.238281 18.28125 19.226562 18.28125 19.214844 C 18.242188 18.902344 18.019531 18.636719 17.722656 18.539062 L 13.714844 17.25 C 12.738281 16.933594 11.785156 17.023438 10.882812 17.515625 L 8.074219 19.042969 L 10.191406 22.722656 L 10.335938 22.644531 C 11.140625 22.207031 11.988281 22.128906 12.859375 22.410156 Z M 22.480469 13.199219 L 21.359375 13.199219 C 21.164062 13.199219 21.007812 13.355469 21.007812 13.546875 C 21.007812 13.742188 21.164062 13.898438 21.359375 13.898438 L 22.480469 13.898438 C 22.675781 13.898438 22.832031 13.742188 22.832031 13.546875 C 22.832031 13.355469 22.675781 13.199219 22.480469 13.199219 Z M 24.414062 15.371094 L 16.59375 15.371094 C 16.210938 15.371094 15.882812 15.125 15.761719 14.78125 C 15.046875 15.167969 14.246094 15.371094 13.414062 15.371094 C 10.789062 15.371094 8.652344 13.34375 8.652344 10.851562 C 8.652344 9.980469 8.921875 9.089844 9.429688 8.277344 C 9.835938 7.621094 10.390625 7.023438 11.046875 6.535156 C 10.972656 6.40625 10.929688 6.257812 10.929688 6.101562 C 10.929688 5.652344 11.265625 5.285156 11.695312 5.226562 L 11.425781 4.601562 C 11.269531 4.238281 11.359375 3.8125 11.652344 3.550781 C 11.917969 3.308594 12.296875 3.28125 12.59375 3.472656 L 12.75 3.570312 C 12.777344 3.589844 12.808594 3.589844 12.835938 3.570312 L 12.992188 3.46875 C 13.253906 3.304688 13.570312 3.304688 13.832031 3.46875 L 13.992188 3.574219 C 14.019531 3.589844 14.046875 3.589844 14.078125 3.570312 L 14.234375 3.472656 C 14.53125 3.28125 14.910156 3.308594 15.171875 3.550781 C 15.464844 3.8125 15.558594 4.234375 15.398438 4.601562 L 15.128906 5.226562 C 15.5625 5.285156 15.894531 5.652344 15.894531 6.101562 C 15.894531 6.257812 15.851562 6.40625 15.78125 6.535156 C 16.582031 7.136719 17.234375 7.898438 17.652344 8.730469 L 24.414062 8.730469 C 24.902344 8.730469 25.296875 9.125 25.296875 9.613281 L 25.296875 14.488281 C 25.296875 14.972656 24.902344 15.371094 24.414062 15.371094 Z M 17.429688 9.425781 L 16.59375 9.425781 C 16.492188 9.425781 16.40625 9.511719 16.40625 9.613281 L 16.40625 9.746094 L 24.601562 9.746094 L 24.601562 9.613281 C 24.601562 9.511719 24.515625 9.425781 24.414062 9.425781 L 17.433594 9.425781 C 17.433594 9.425781 17.429688 9.425781 17.429688 9.425781 Z M 12.066406 4.324219 L 12.453125 5.21875 L 14.375 5.21875 L 14.757812 4.324219 C 14.800781 4.234375 14.777344 4.132812 14.707031 4.066406 C 14.675781 4.039062 14.640625 4.039062 14.609375 4.058594 L 14.453125 4.160156 C 14.191406 4.324219 13.871094 4.324219 13.617188 4.160156 L 13.457031 4.054688 C 13.425781 4.039062 13.398438 4.039062 13.371094 4.058594 L 13.210938 4.160156 C 12.953125 4.324219 12.632812 4.324219 12.375 4.160156 L 12.21875 4.058594 C 12.183594 4.039062 12.148438 4.039062 12.121094 4.066406 C 12.046875 4.132812 12.027344 4.234375 12.066406 4.324219 Z M 16.59375 8.730469 L 16.855469 8.730469 C 16.457031 8.058594 15.878906 7.449219 15.1875 6.964844 C 15.128906 6.976562 15.070312 6.984375 15.011719 6.984375 L 11.8125 6.984375 C 11.753906 6.984375 11.695312 6.976562 11.640625 6.964844 C 10.222656 7.949219 9.351562 9.425781 9.351562 10.851562 C 9.351562 12.957031 11.171875 14.671875 13.414062 14.671875 C 14.242188 14.671875 15.03125 14.441406 15.707031 14.003906 L 15.707031 9.613281 C 15.707031 9.125 16.105469 8.730469 16.59375 8.730469 Z M 16.59375 14.671875 L 24.414062 14.671875 C 24.519531 14.671875 24.601562 14.589844 24.601562 14.488281 L 24.601562 11.460938 L 16.40625 11.460938 L 16.40625 14.488281 C 16.40625 14.585938 16.492188 14.671875 16.59375 14.671875 Z M 23.605469 12.238281 L 21.359375 12.238281 C 21.164062 12.238281 21.007812 12.394531 21.007812 12.585938 C 21.007812 12.777344 21.164062 12.933594 21.359375 12.933594 L 23.605469 12.933594 C 23.796875 12.933594 23.953125 12.777344 23.953125 12.585938 C 23.953125 12.394531 23.796875 12.238281 23.605469 12.238281 Z M 18.609375 12.011719 L 17.605469 12.011719 C 17.300781 12.011719 17.054688 12.261719 17.054688 12.566406 L 17.054688 13.570312 C 17.054688 13.875 17.300781 14.121094 17.605469 14.121094 L 18.609375 14.121094 C 18.914062 14.121094 19.164062 13.875 19.164062 13.570312 L 19.164062 12.566406 C 19.164062 12.261719 18.914062 12.011719 18.609375 12.011719 Z M 18.609375 12.011719 " fill-opacity="1" fill-rule="nonzero"/></g></svg>