<svg xmlns="http://www.w3.org/2000/svg" xmlns:xlink="http://www.w3.org/1999/xlink" width="40" zoomAndPan="magnify" viewBox="0 0 30 30.000001" height="40" preserveAspectRatio="xMidYMid meet" version="1.0"><defs><clipPath id="e4b58f21fa"><path d="M 5.667969 2.902344 L 24.535156 2.902344 L 24.535156 26.128906 L 5.667969 26.128906 Z M 5.667969 2.902344 " clip-rule="nonzero"/></clipPath></defs><g clip-path="url(#e4b58f21fa)"><path fill="#00d1ff" d="M 19.503906 6.707031 L 20.730469 6.707031 C 20.878906 6.707031 21.007812 6.652344 21.113281 6.546875 C 21.21875 6.441406 21.273438 6.3125 21.273438 6.164062 L 21.273438 4.9375 C 21.273438 4.785156 21.21875 4.65625 21.113281 4.550781 C 21.007812 4.445312 20.878906 4.394531 20.730469 4.394531 L 19.503906 4.394531 C 19.351562 4.394531 19.226562 4.445312 19.117188 4.550781 C 19.011719 4.65625 18.960938 4.785156 18.960938 4.9375 L 18.960938 6.164062 C 18.960938 6.3125 19.011719 6.441406 19.117188 6.546875 C 19.226562 6.652344 19.351562 6.707031 19.503906 6.707031 Z M 19.371094 4.9375 C 19.371094 4.847656 19.414062 4.804688 19.503906 4.804688 L 20.730469 4.804688 C 20.816406 4.804688 20.863281 4.847656 20.863281 4.9375 L 20.863281 6.164062 C 20.863281 6.25 20.816406 6.292969 20.730469 6.292969 L 19.503906 6.292969 C 19.414062 6.292969 19.371094 6.25 19.371094 6.164062 Z M 24.332031 14.203125 C 24.347656 13.152344 23.5 12.21875 22.464844 12.113281 C 24.226562 11.066406 24.105469 8.378906 22.253906 7.492188 L 22.253906 3.109375 C 22.253906 2.976562 22.1875 2.90625 22.050781 2.90625 L 15.097656 2.90625 C 14.964844 2.90625 14.894531 2.976562 14.894531 3.109375 L 14.894531 4.636719 L 8.113281 6.03125 C 8.003906 6.054688 7.949219 6.121094 7.949219 6.234375 L 7.949219 7.398438 C 5.933594 8.167969 5.683594 11.011719 7.523438 12.113281 C 6.757812 12.207031 6.085938 12.714844 5.804688 13.445312 C 5.710938 13.6875 5.664062 13.941406 5.667969 14.203125 L 5.667969 16.800781 C 5.671875 19.066406 6.46875 21.234375 7.976562 22.949219 C 13.4375 29.164062 23.738281 25.691406 24.304688 17.441406 C 24.355469 17 24.320312 14.683594 24.332031 14.203125 Z M 23.167969 9.066406 C 23.75 10.46875 22.601562 12.132812 21.082031 12.09375 C 19.546875 12.121094 18.421875 10.476562 18.996094 9.0625 C 19.707031 7.164062 22.464844 7.160156 23.167969 9.066406 Z M 15.304688 3.316406 L 21.84375 3.316406 L 21.84375 7.324219 C 18.867188 6.507812 17.109375 10.425781 19.691406 12.109375 C 18.984375 12.199219 18.351562 12.652344 18.039062 13.292969 C 17.730469 12.652344 17.097656 12.203125 16.394531 12.109375 C 18.507812 10.789062 17.773438 7.53125 15.304688 7.234375 Z M 16.371094 14.855469 C 16.230469 14.851562 16.164062 14.921875 16.164062 15.058594 L 16.164062 16.597656 L 13.832031 16.597656 L 13.832031 15.058594 C 13.824219 14.933594 13.753906 14.867188 13.625 14.867188 C 13.5 14.867188 13.429688 14.933594 13.421875 15.058594 L 13.421875 16.597656 L 12.160156 16.597656 L 12.160156 14.203125 C 12.144531 13.28125 12.945312 12.492188 13.859375 12.503906 L 16.136719 12.503906 C 17.050781 12.492188 17.851562 13.28125 17.835938 14.203125 L 17.835938 16.597656 L 16.574219 16.597656 L 16.574219 15.058594 C 16.574219 14.921875 16.503906 14.855469 16.371094 14.855469 Z M 18.929688 17.007812 C 18.863281 18.144531 18.59375 19.316406 18.128906 20.5 C 16.078125 19.816406 13.996094 19.832031 11.886719 20.550781 C 11.410156 19.347656 11.136719 18.15625 11.066406 17.007812 Z M 15 7.625 C 16.289062 7.605469 17.371094 8.796875 17.222656 10.085938 C 16.863281 12.871094 12.855469 12.6875 12.761719 9.859375 C 12.746094 8.652344 13.789062 7.609375 15 7.625 Z M 8.359375 6.402344 L 14.894531 5.054688 L 14.894531 7.214844 C 12.300781 7.335938 11.40625 10.726562 13.609375 12.109375 C 12.902344 12.199219 12.265625 12.652344 11.957031 13.292969 C 11.644531 12.652344 11.011719 12.199219 10.304688 12.109375 C 12.792969 10.503906 11.269531 6.703125 8.359375 7.273438 Z M 6.679688 9.859375 C 6.65625 8.65625 7.707031 7.601562 8.910156 7.625 C 11.871094 7.730469 11.882812 11.976562 8.910156 12.09375 C 7.699219 12.109375 6.664062 11.074219 6.679688 9.859375 Z M 6.078125 14.203125 C 6.0625 13.28125 6.859375 12.492188 7.773438 12.503906 L 10.054688 12.503906 C 10.96875 12.492188 11.765625 13.28125 11.75 14.203125 L 11.75 16.597656 L 10.488281 16.597656 L 10.488281 15.058594 C 10.480469 14.933594 10.410156 14.867188 10.285156 14.867188 C 10.15625 14.867188 10.089844 14.933594 10.078125 15.058594 L 10.078125 16.597656 L 7.746094 16.597656 L 7.746094 15.058594 C 7.738281 14.933594 7.667969 14.867188 7.542969 14.867188 C 7.414062 14.867188 7.347656 14.933594 7.335938 15.058594 L 7.335938 16.597656 L 6.078125 16.597656 Z M 6.078125 17.007812 L 10.65625 17.007812 C 10.722656 18.203125 11.007812 19.441406 11.503906 20.6875 C 10.394531 21.109375 9.285156 21.726562 8.167969 22.535156 C 6.851562 20.972656 6.132812 19.042969 6.078125 17.007812 Z M 8.4375 22.84375 C 9.523438 22.0625 10.59375 21.464844 11.652344 21.054688 C 12.304688 22.570312 13.277344 24.136719 14.558594 25.710938 C 13.390625 25.652344 12.277344 25.375 11.214844 24.878906 C 10.15625 24.382812 9.230469 23.703125 8.4375 22.84375 Z M 12.039062 20.914062 C 14.046875 20.226562 16.019531 20.207031 17.976562 20.867188 C 17.320312 22.402344 16.320312 23.996094 15 25.605469 C 13.6875 24.011719 12.695312 22.4375 12.039062 20.914062 Z M 15.4375 25.710938 C 16.730469 24.117188 17.714844 22.539062 18.363281 21.007812 C 19.433594 21.414062 20.5 22.027344 21.5625 22.839844 C 20.769531 23.703125 19.84375 24.382812 18.785156 24.878906 C 17.722656 25.375 16.609375 25.652344 15.4375 25.710938 Z M 23.894531 17.410156 C 23.769531 19.304688 23.054688 21.070312 21.832031 22.527344 C 20.738281 21.691406 19.628906 21.058594 18.515625 20.636719 C 18.996094 19.410156 19.273438 18.191406 19.339844 17.007812 L 23.917969 17.007812 C 23.914062 17.144531 23.90625 17.277344 23.894531 17.410156 Z M 23.917969 16.597656 L 22.660156 16.597656 L 22.660156 15.058594 C 22.648438 14.933594 22.582031 14.867188 22.453125 14.867188 C 22.324219 14.867188 22.257812 14.933594 22.25 15.058594 L 22.25 16.597656 L 19.917969 16.597656 L 19.917969 15.058594 C 19.90625 14.933594 19.839844 14.867188 19.710938 14.867188 C 19.585938 14.867188 19.515625 14.933594 19.507812 15.058594 L 19.507812 16.597656 L 18.246094 16.597656 L 18.246094 14.203125 C 18.246094 13.992188 18.28125 13.789062 18.359375 13.59375 C 18.609375 12.941406 19.246094 12.503906 19.945312 12.503906 L 22.222656 12.503906 C 22.921875 12.503906 23.558594 12.941406 23.808594 13.59375 C 23.882812 13.789062 23.917969 13.992188 23.917969 14.203125 Z M 18.328125 6.164062 L 18.328125 4.9375 C 18.328125 4.785156 18.273438 4.65625 18.167969 4.550781 C 18.0625 4.445312 17.933594 4.394531 17.78125 4.394531 L 16.554688 4.394531 C 16.40625 4.394531 16.277344 4.445312 16.171875 4.550781 C 16.066406 4.65625 16.011719 4.785156 16.011719 4.9375 L 16.011719 6.164062 C 16.011719 6.3125 16.066406 6.441406 16.171875 6.546875 C 16.277344 6.652344 16.40625 6.707031 16.554688 6.707031 L 17.78125 6.707031 C 17.933594 6.707031 18.0625 6.652344 18.167969 6.546875 C 18.273438 6.441406 18.328125 6.3125 18.328125 6.164062 Z M 16.425781 6.164062 L 16.425781 4.9375 C 16.425781 4.847656 16.46875 4.804688 16.554688 4.804688 L 17.78125 4.804688 C 17.871094 4.804688 17.914062 4.847656 17.914062 4.9375 L 17.914062 6.164062 C 17.914062 6.25 17.871094 6.292969 17.78125 6.292969 L 16.554688 6.292969 C 16.46875 6.292969 16.425781 6.25 16.425781 6.164062 Z M 16.425781 6.164062 " fill-opacity="1" fill-rule="nonzero"/></g></svg>