<svg xmlns="http://www.w3.org/2000/svg" xmlns:xlink="http://www.w3.org/1999/xlink" width="40" zoomAndPan="magnify" viewBox="0 0 30 30.000001" height="40" preserveAspectRatio="xMidYMid meet" version="1.0"><defs><clipPath id="a3e3c8b606"><path d="M 5.726562 5.222656 L 24.597656 5.222656 L 24.597656 24 L 5.726562 24 Z M 5.726562 5.222656 " clip-rule="nonzero"/></clipPath></defs><g clip-path="url(#a3e3c8b606)"><path fill="#00d1ff" d="M 9.695312 11.222656 L 9.417969 11.222656 L 9.417969 10.660156 L 13.292969 10.660156 L 13.292969 11.222656 Z M 9.695312 9.734375 L 9.417969 9.734375 L 9.417969 9.175781 L 14.152344 9.175781 L 14.152344 9.734375 Z M 7.050781 18.703125 L 7.050781 18.421875 L 7.609375 18.421875 L 7.609375 19.34375 L 8.53125 19.34375 L 8.53125 19.90625 L 7.050781 19.90625 Z M 9.316406 13.558594 L 9.316406 13.277344 L 9.875 13.277344 L 9.875 14.199219 L 10.796875 14.199219 L 10.796875 14.757812 L 9.316406 14.757812 Z M 7.050781 13.558594 L 7.050781 13.277344 L 7.609375 13.277344 L 7.609375 14.199219 L 8.53125 14.199219 L 8.53125 14.757812 L 7.050781 14.757812 Z M 7.050781 16.128906 L 7.050781 15.851562 L 7.609375 15.851562 L 7.609375 16.769531 L 8.53125 16.769531 L 8.53125 17.332031 L 7.050781 17.332031 Z M 9.316406 21.277344 L 9.316406 20.996094 L 9.875 20.996094 L 9.875 21.917969 L 10.796875 21.917969 L 10.796875 22.476562 L 9.316406 22.476562 Z M 9.316406 18.703125 L 9.316406 18.421875 L 9.875 18.421875 L 9.875 19.34375 L 10.796875 19.34375 L 10.796875 19.90625 L 9.316406 19.90625 Z M 7.050781 21.277344 L 7.050781 20.996094 L 7.609375 20.996094 L 7.609375 21.917969 L 8.53125 21.917969 L 8.53125 22.476562 L 7.050781 22.476562 Z M 18.132812 17.308594 L 20.679688 17.308594 C 20.835938 17.308594 20.960938 17.433594 20.960938 17.585938 L 20.960938 19.703125 C 20.960938 19.855469 20.835938 19.980469 20.679688 19.980469 L 18.132812 19.980469 C 17.976562 19.980469 17.851562 19.855469 17.851562 19.703125 L 17.851562 17.585938 C 17.851562 17.433594 17.976562 17.308594 18.132812 17.308594 Z M 20.402344 17.867188 L 18.410156 17.867188 L 18.410156 19.421875 L 20.402344 19.421875 Z M 13.207031 17.839844 L 16.816406 17.839844 C 16.96875 17.839844 17.09375 17.964844 17.09375 18.121094 L 17.09375 23.234375 L 21.441406 23.234375 L 21.441406 16.589844 L 20.992188 16.589844 C 20.921875 16.589844 20.855469 16.5625 20.804688 16.519531 L 16.679688 13.433594 L 12.554688 16.519531 C 12.5 16.5625 12.449219 16.589844 12.367188 16.589844 L 11.917969 16.589844 L 11.917969 23.234375 L 12.925781 23.234375 L 12.925781 18.121094 C 12.925781 17.964844 13.050781 17.839844 13.207031 17.839844 Z M 16.535156 18.402344 L 13.484375 18.402344 L 13.484375 23.234375 L 16.535156 23.234375 Z M 16.851562 10.996094 L 21.011719 14.109375 L 21.011719 12.644531 L 20.117188 12.644531 C 19.878906 12.644531 19.746094 12.359375 19.90625 12.179688 L 20.289062 11.738281 C 18.789062 11.417969 17.691406 10.085938 17.691406 8.519531 C 17.691406 6.703125 19.164062 5.230469 20.980469 5.230469 C 22.800781 5.230469 24.273438 6.703125 24.273438 8.519531 C 24.273438 9.476562 23.859375 10.367188 23.160156 10.984375 L 24.1875 12.164062 C 24.375 12.363281 24.226562 12.644531 23.992188 12.644531 L 23.09375 12.644531 L 23.09375 15.667969 L 23.65625 16.085938 C 23.871094 16.246094 23.753906 16.585938 23.488281 16.585938 L 23.488281 16.589844 L 22.003906 16.589844 L 22.003906 23.449219 L 21.992188 23.5625 C 21.972656 23.699219 21.851562 23.796875 21.71875 23.796875 L 6.007812 23.796875 C 5.855469 23.796875 5.730469 23.671875 5.730469 23.515625 L 5.730469 12.238281 C 5.730469 12.085938 5.855469 11.957031 6.007812 11.957031 L 7.8125 11.957031 L 7.8125 8.359375 L 7.265625 8.359375 C 7.109375 8.359375 6.984375 8.234375 6.984375 8.078125 L 6.984375 6.378906 C 6.984375 6.222656 7.109375 6.097656 7.265625 6.097656 L 16.300781 6.097656 C 16.457031 6.097656 16.582031 6.222656 16.582031 6.378906 L 16.582031 8.078125 C 16.582031 8.234375 16.457031 8.359375 16.300781 8.359375 L 15.753906 8.359375 L 15.753906 11.558594 L 16.511719 10.992188 C 16.617188 10.914062 16.753906 10.917969 16.851562 10.996094 Z M 21.574219 14.527344 L 22.535156 15.246094 L 22.535156 12.363281 C 22.535156 12.207031 22.660156 12.082031 22.816406 12.082031 L 23.378906 12.082031 L 22.054688 10.570312 L 20.730469 12.082031 L 21.292969 12.082031 C 21.449219 12.082031 21.574219 12.210938 21.574219 12.363281 Z M 11.355469 16.589844 L 9.871094 16.589844 C 9.605469 16.589844 9.472656 16.242188 9.722656 16.070312 L 12.007812 14.363281 L 12.007812 12.519531 C 10.101562 12.519531 8.195312 12.519531 6.289062 12.519531 L 6.289062 23.238281 L 11.355469 23.238281 Z M 12.566406 13.941406 L 15.195312 11.980469 L 15.195312 8.359375 L 8.375 8.359375 L 8.375 11.957031 L 12.289062 11.957031 C 12.441406 11.957031 12.566406 12.085938 12.566406 12.238281 Z M 22.628906 16.011719 L 16.679688 11.5625 L 15.660156 12.324219 C 15.648438 12.335938 15.636719 12.347656 15.621094 12.355469 L 12.476562 14.710938 C 12.460938 14.722656 12.449219 14.730469 12.433594 14.738281 L 10.710938 16.03125 L 12.277344 16.03125 L 16.507812 12.863281 C 16.613281 12.785156 16.75 12.785156 16.851562 12.863281 L 21.082031 16.03125 L 22.648438 16.03125 C 22.640625 16.023438 22.636719 16.019531 22.628906 16.011719 Z M 7.542969 7.800781 L 16.023438 7.800781 L 16.023438 6.65625 L 7.542969 6.65625 Z M 20.726562 11.242188 L 21.871094 9.933594 C 21.988281 9.832031 22.164062 9.84375 22.265625 9.960938 L 22.792969 10.566406 C 23.96875 9.523438 24.027344 7.707031 22.914062 6.589844 C 21.847656 5.523438 20.117188 5.523438 19.050781 6.589844 C 18 7.640625 17.980469 9.335938 19.007812 10.410156 C 19.449219 10.871094 20.050781 11.179688 20.726562 11.242188 Z M 19.917969 9.238281 C 19.90625 9.085938 20.019531 8.949219 20.171875 8.9375 C 20.324219 8.921875 20.460938 9.035156 20.476562 9.1875 C 20.503906 9.488281 21.046875 9.65625 21.359375 9.402344 C 21.4375 9.335938 21.488281 9.253906 21.488281 9.164062 C 21.488281 8.535156 19.914062 9.117188 19.914062 7.878906 C 19.914062 7.429688 20.269531 7.089844 20.695312 6.988281 L 20.695312 6.808594 C 20.695312 6.652344 20.820312 6.527344 20.984375 6.527344 L 20.984375 6.53125 C 21.144531 6.53125 21.269531 6.660156 21.265625 6.8125 L 21.261719 6.988281 C 21.691406 7.089844 22.046875 7.429688 22.046875 7.878906 C 22.046875 8.035156 21.921875 8.160156 21.765625 8.160156 C 21.613281 8.160156 21.488281 8.035156 21.488281 7.878906 C 21.488281 7.5625 20.921875 7.378906 20.601562 7.640625 C 20.523438 7.707031 20.476562 7.789062 20.476562 7.878906 C 20.476562 8.507812 22.046875 7.925781 22.046875 9.164062 C 22.046875 9.613281 21.691406 9.953125 21.261719 10.054688 L 21.257812 10.234375 C 21.257812 10.390625 21.132812 10.515625 20.976562 10.515625 C 20.824219 10.515625 20.699219 10.390625 20.699219 10.234375 L 20.699219 10.054688 C 20.296875 9.957031 19.960938 9.65625 19.917969 9.238281 Z M 19.917969 9.238281 " fill-opacity="1" fill-rule="nonzero"/></g></svg>