<svg xmlns="http://www.w3.org/2000/svg" xmlns:xlink="http://www.w3.org/1999/xlink" width="607" zoomAndPan="magnify" viewBox="0 0 455.25 191.999996" height="256" preserveAspectRatio="xMidYMid meet" version="1.0"><defs><clipPath id="b74b91047e"><path d="M 365 55 L 454.5 55 L 454.5 140 L 365 140 Z M 365 55 " clip-rule="nonzero"/></clipPath><clipPath id="729142b6b4"><path d="M 15 0.15625 L 72 0.15625 L 72 43 L 15 43 Z M 15 0.15625 " clip-rule="nonzero"/></clipPath><clipPath id="62bba54968"><path d="M 322 156 L 347 156 L 347 191.839844 L 322 191.839844 Z M 322 156 " clip-rule="nonzero"/></clipPath></defs><g clip-path="url(#b74b91047e)"><path fill="#ffffff" d="M 390.308594 104.355469 C 391.867188 113.542969 400.542969 119.214844 409.371094 120.351562 C 419.304688 121.640625 427.867188 119.304688 435.578125 113.03125 C 438.933594 116.480469 442.695312 119.976562 445.871094 123.558594 C 446.378906 124.136719 448.378906 126.316406 448.230469 126.863281 C 447.9375 127.957031 441.367188 132.648438 440.035156 133.425781 C 425.882812 141.71875 403.863281 141.683594 389.132812 134.820312 C 352.796875 117.902344 359.660156 65.210938 398.632812 56.511719 C 428.652344 49.808594 456.808594 68.671875 454.34375 101 C 454.269531 101.980469 454.089844 103.683594 453.550781 104.363281 L 390.308594 104.363281 Z M 431.296875 90.273438 C 427.792969 67.542969 393.269531 67.542969 389.671875 90.273438 Z M 431.296875 90.273438 " fill-opacity="1" fill-rule="nonzero"/></g><path fill="#ffffff" d="M 201.023438 55.140625 C 229.320312 54.941406 250.855469 76.523438 245.804688 105.375 C 237.960938 150.238281 168.007812 151.472656 157.488281 108.082031 C 150.378906 78.75 171.964844 55.351562 201.015625 55.140625 Z M 197.804688 75.003906 C 175.132812 77.550781 173.910156 116.195312 197.472656 119.964844 C 209.976562 121.964844 220.691406 114.222656 222.113281 101.554688 C 223.929688 85.476562 214.757812 73.101562 197.796875 75.011719 Z M 197.804688 75.003906 " fill-opacity="1" fill-rule="nonzero"/><path fill="#ffffff" d="M 131.28125 38.429688 L 131.28125 58.273438 L 151.449219 58.273438 L 151.449219 76.515625 L 131.28125 76.515625 L 131.28125 112.203125 C 131.28125 112.644531 132.152344 115.316406 132.40625 115.878906 C 134.546875 120.601562 139.851562 121.230469 144.492188 120.601562 C 147.023438 120.253906 149.046875 118.675781 151.457031 118.121094 C 151.585938 120.824219 157.570312 132.976562 157.183594 134.542969 C 156.859375 135.839844 149.652344 138.28125 148.140625 138.648438 C 134.472656 141.953125 115.9375 138.902344 109.996094 124.519531 C 109.21875 122.628906 107.59375 117.273438 107.59375 115.402344 L 107.59375 38.429688 L 131.289062 38.429688 Z M 131.28125 38.429688 " fill-opacity="1" fill-rule="nonzero"/><path fill="#ffffff" d="M 0 138.601562 L 7.207031 93.472656 L 86.90625 122.242188 L 89.335938 138.601562 Z M 0 138.601562 " fill-opacity="1" fill-rule="nonzero"/><path fill="#0ae2ea" d="M 83.886719 102.433594 L 9.917969 75.707031 L 11.6875 62.433594 L 73.984375 39.84375 Z M 83.886719 102.433594 " fill-opacity="1" fill-rule="nonzero"/><path fill="#ffffff" d="M 365.339844 77.152344 C 358.0625 76.597656 349.375 76.90625 343.890625 82.4375 C 341.363281 84.984375 338.121094 91.679688 338.121094 95.230469 L 338.121094 138.59375 L 314.109375 138.59375 L 314.109375 56.339844 L 336.839844 56.339844 L 336.839844 66.90625 C 340.324219 63.160156 343.890625 60.09375 348.699219 58.117188 C 353.847656 55.996094 359.0625 55.480469 364.566406 55.082031 C 364.835938 55.007812 365.339844 55.410156 365.339844 55.546875 Z M 365.339844 77.152344 " fill-opacity="1" fill-rule="nonzero"/><path fill="#ffffff" d="M 305.785156 55.390625 L 305.785156 77.152344 C 297.640625 76.496094 288.972656 76.996094 283.382812 83.722656 C 281.046875 86.535156 278.574219 92.566406 278.574219 96.199219 L 278.574219 138.601562 L 254.878906 138.601562 L 254.878906 56.347656 L 277.128906 56.347656 C 277.128906 56.347656 277.609375 56.796875 277.609375 56.828125 L 277.609375 66.914062 C 284.289062 58.410156 295.183594 54.941406 305.785156 55.390625 Z M 305.785156 55.390625 " fill-opacity="1" fill-rule="nonzero"/><g clip-path="url(#729142b6b4)"><path fill="#0ae2ea" d="M 67.863281 0.0390625 L 71.039062 22.058594 L 15.050781 42.261719 L 21.472656 0.0390625 Z M 67.863281 0.0390625 " fill-opacity="1" fill-rule="nonzero"/></g><path fill="#ffffff" d="M 364.320312 156.292969 C 383.910156 155.414062 382.816406 188.890625 362.117188 185.1875 C 348.011719 182.664062 348.4375 157.003906 364.320312 156.292969 Z M 360.328125 178.496094 C 361.914062 180.207031 364.816406 180.542969 367.023438 180.132812 C 372.90625 179.050781 373.386719 168.203125 370.597656 164.226562 C 368.761719 161.601562 365.503906 160.824219 362.535156 161.886719 C 357.023438 163.882812 356.828125 174.730469 360.320312 178.496094 Z M 360.328125 178.496094 " fill-opacity="1" fill-rule="nonzero"/><path fill="#ffffff" d="M 174.660156 156.847656 C 178.894531 157.257812 182.992188 159.4375 183.464844 164.054688 C 183.882812 168.160156 182.59375 172.175781 178.347656 173.492188 C 178.355469 173.644531 178.300781 173.824219 178.347656 173.957031 C 178.519531 174.429688 180.519531 176.902344 181.074219 177.957031 C 182.152344 180.011719 183.3125 182.789062 183.785156 185.007812 L 178.183594 185.007812 C 175.882812 181.292969 175.199219 174.835938 169.695312 174.765625 L 169.695312 185.007812 L 164.246094 185.007812 L 164.246094 156.847656 C 167.59375 157.078125 171.347656 156.523438 174.652344 156.847656 Z M 169.699219 169.964844 L 174.660156 169.964844 C 174.742188 169.964844 176 169.402344 176.210938 169.273438 C 178.40625 167.957031 178.652344 164.628906 177.066406 162.757812 C 176.660156 162.285156 175.15625 161.320312 174.660156 161.320312 L 169.699219 161.320312 Z M 169.699219 169.964844 " fill-opacity="1" fill-rule="nonzero"/><path fill="#ffffff" d="M 132.878906 185.007812 L 142.191406 157.355469 C 142.984375 156.261719 147.824219 157.136719 149.332031 156.832031 L 159.128906 185.015625 L 152.890625 185.015625 C 151.796875 182.550781 151.128906 179.710938 150.453125 177.042969 L 141.480469 177.203125 L 139.277344 185.015625 L 132.871094 185.015625 Z M 148.886719 172.203125 C 147.921875 169.492188 147.433594 165.980469 146.347656 163.386719 C 146.214844 163.0625 146.117188 162.644531 145.6875 162.605469 L 143.125 172.203125 Z M 148.886719 172.203125 " fill-opacity="1" fill-rule="nonzero"/><g clip-path="url(#62bba54968)"><path fill="#ffffff" d="M 346.765625 162.601562 L 342.445312 165.164062 C 340.449219 161.96875 338 160.996094 334.261719 161.789062 C 328.148438 163.085938 327.78125 174.683594 331.402344 178.453125 C 333.378906 180.503906 337.6875 180.886719 340.03125 179.398438 C 340.796875 178.910156 342.015625 176.953125 342.429688 177 C 343.566406 177.121094 345.53125 179.050781 346.78125 179.417969 C 345.035156 182.699219 341.589844 185.128906 337.804688 185.339844 C 338.765625 191.8125 332.875 192.433594 327.878906 191.734375 L 327.878906 187.570312 C 330.222656 187.667969 333.257812 188.550781 333.339844 185.195312 C 319.675781 182.386719 319.429688 159.917969 332.988281 156.671875 C 338.40625 155.378906 344.355469 157.394531 346.773438 162.601562 Z M 346.765625 162.601562 " fill-opacity="1" fill-rule="nonzero"/></g><path fill="#ffffff" d="M 292.972656 185.007812 L 302.414062 157.160156 C 303.035156 156.410156 307.890625 157.085938 309.15625 156.824219 L 319.234375 185.007812 L 312.828125 185.007812 L 310.558594 177.035156 L 301.820312 176.984375 L 299.386719 185.007812 Z M 303.222656 172.203125 L 308.984375 172.203125 L 305.941406 162.601562 L 303.214844 172.203125 Z M 303.222656 172.203125 " fill-opacity="1" fill-rule="nonzero"/><path fill="#ffffff" d="M 403.441406 156.847656 L 403.441406 161.648438 L 391.277344 161.648438 L 391.277344 168.046875 L 401.519531 168.046875 L 401.519531 172.847656 L 391.277344 172.847656 L 391.277344 180.207031 L 403.441406 180.207031 L 403.441406 185.007812 L 385.507812 185.007812 L 385.507812 156.847656 Z M 403.441406 156.847656 " fill-opacity="1" fill-rule="nonzero"/><path fill="#ffffff" d="M 276.964844 175.402344 L 276.964844 185.007812 L 271.203125 185.007812 L 271.203125 156.847656 L 281.929688 156.847656 C 282.09375 156.847656 284.011719 157.21875 284.351562 157.304688 C 289.925781 158.710938 291.78125 163.769531 290.253906 169.003906 C 288.589844 174.714844 282.035156 175.3125 276.964844 175.402344 Z M 276.964844 170.609375 C 280.550781 170.742188 285.21875 170.640625 285.21875 165.972656 C 285.21875 164.128906 283.585938 161.332031 281.601562 161.332031 L 276.957031 161.332031 L 276.957031 170.617188 Z M 276.964844 170.609375 " fill-opacity="1" fill-rule="nonzero"/><path fill="#ffffff" d="M 116.867188 175.402344 L 116.867188 184.519531 C 116.867188 184.519531 116.417969 185 116.386719 185 L 111.105469 185 L 111.105469 156.839844 L 121.511719 156.839844 C 122.210938 156.839844 124.628906 157.460938 125.414062 157.738281 C 130.105469 159.386719 131.425781 164.152344 130.164062 168.683594 C 128.511719 174.648438 122.164062 175.246094 116.875 175.394531 Z M 116.554688 170.609375 C 120.1875 170.78125 125.132812 170.773438 125.132812 165.972656 C 125.132812 164.128906 123.496094 161.332031 121.511719 161.332031 L 116.554688 161.332031 L 116.554688 170.617188 Z M 116.554688 170.609375 " fill-opacity="1" fill-rule="nonzero"/><path fill="#ffffff" d="M 246.554688 165.167969 C 245.632812 161.296875 239.945312 160.675781 237.023438 162.53125 C 231.234375 166.210938 232.003906 181.914062 242.46875 180.136719 C 244.710938 179.757812 245.558594 178.28125 247.019531 177 C 249.40625 178.796875 252.5625 178.460938 249.738281 181.644531 C 241.976562 190.410156 228.25 183.765625 227.335938 172.371094 C 226.453125 161.339844 236.980469 151.855469 247.152344 158 C 248.15625 158.605469 251.851562 161.589844 250.703125 162.773438 C 250.539062 162.945312 246.734375 165.320312 246.546875 165.167969 Z M 246.554688 165.167969 " fill-opacity="1" fill-rule="nonzero"/><path fill="#ffffff" d="M 424.570312 163.566406 C 422.5625 161.183594 413.738281 160.140625 414.015625 164.34375 C 414.195312 167.15625 421.335938 168.527344 423.625 169.808594 C 425.589844 170.902344 427.636719 172.660156 428.023438 175.007812 C 429.671875 184.796875 419.886719 187.128906 412.417969 184.207031 C 411.933594 184.019531 409.398438 182.828125 409.203125 182.617188 C 408.1875 181.496094 410.066406 178.691406 410.171875 177.335938 C 412.941406 179.285156 415.820312 180.558594 419.3125 180.230469 C 421.597656 180.011719 423.425781 177.980469 422.152344 175.761719 C 420.226562 172.414062 410.058594 172.609375 408.964844 166.21875 C 407.414062 157.09375 418.40625 153.9375 424.804688 158.074219 C 427.476562 159.796875 424.832031 161.050781 424.578125 163.574219 Z M 424.570312 163.566406 " fill-opacity="1" fill-rule="nonzero"/><path fill="#ffffff" d="M 209.085938 156.847656 L 209.085938 161.484375 C 209.085938 161.484375 208.636719 161.964844 208.605469 161.964844 L 201.398438 161.964844 L 201.398438 185.007812 L 195.636719 185.007812 L 195.636719 161.964844 L 188.273438 161.964844 L 188.273438 156.847656 Z M 209.085938 156.847656 " fill-opacity="1" fill-rule="nonzero"/><path fill="#ffffff" d="M 214.527344 185.007812 L 214.527344 156.847656 L 219.808594 156.847656 C 219.808594 156.847656 220.285156 157.296875 220.285156 157.324219 L 220.285156 184.527344 C 220.285156 184.527344 219.835938 185.007812 219.808594 185.007812 Z M 214.527344 185.007812 " fill-opacity="1" fill-rule="nonzero"/><path fill="#ffffff" d="M 257.433594 185.007812 L 257.433594 156.847656 L 262.714844 156.847656 C 262.714844 156.847656 263.195312 157.296875 263.195312 157.324219 L 263.195312 184.527344 C 263.195312 184.527344 262.742188 185.007812 262.714844 185.007812 Z M 257.433594 185.007812 " fill-opacity="1" fill-rule="nonzero"/><path fill="#ffffff" d="M 370.75 150.164062 C 370.882812 150.238281 372 152.417969 372.359375 152.800781 C 371.046875 154.5 368.949219 155.121094 366.859375 154.839844 C 364.820312 154.5625 363.8125 153.136719 361.398438 153.707031 C 360.851562 153.835938 359.90625 154.824219 359.578125 154.597656 C 359.464844 154.515625 358.289062 152.3125 358.28125 152.179688 C 358.160156 150.761719 360.867188 149.632812 362.050781 149.5625 C 364.636719 149.40625 366.230469 151.855469 368.949219 151.015625 C 369.476562 150.859375 370.007812 149.730469 370.742188 150.164062 Z M 370.75 150.164062 " fill-opacity="1" fill-rule="nonzero"/></svg>