<svg xmlns="http://www.w3.org/2000/svg" xmlns:xlink="http://www.w3.org/1999/xlink" width="40" zoomAndPan="magnify" viewBox="0 0 30 30.000001" height="40" preserveAspectRatio="xMidYMid meet" version="1.0"><defs><clipPath id="8e369aa88e"><path d="M 5.210938 2.902344 L 24.808594 2.902344 L 24.808594 26.128906 L 5.210938 26.128906 Z M 5.210938 2.902344 " clip-rule="nonzero"/></clipPath></defs><g clip-path="url(#8e369aa88e)"><path fill="#0be1ea" d="M 7.53125 5.355469 C 7.328125 5.355469 7.164062 5.519531 7.164062 5.722656 L 7.164062 21.359375 C 7.164062 21.558594 7.328125 21.722656 7.53125 21.722656 L 14.464844 21.722656 C 14.667969 21.722656 14.832031 21.558594 14.832031 21.359375 C 14.832031 21.15625 14.667969 20.992188 14.464844 20.992188 L 7.898438 20.992188 L 7.898438 6.085938 L 10.183594 6.085938 C 10.320312 6.375 10.613281 6.574219 10.953125 6.574219 L 15.839844 6.574219 C 16.179688 6.574219 16.46875 6.375 16.609375 6.085938 L 18.890625 6.085938 L 18.890625 15.800781 C 18.890625 16.003906 19.054688 16.167969 19.257812 16.167969 C 19.460938 16.167969 19.625 16.003906 19.625 15.800781 L 19.625 5.722656 C 19.625 5.519531 19.460938 5.355469 19.257812 5.355469 L 16.695312 5.355469 L 16.695312 4.132812 L 20.234375 4.132812 C 20.578125 4.132812 20.847656 4.402344 20.847656 4.742188 L 20.847656 15.800781 C 20.847656 16.003906 21.011719 16.167969 21.210938 16.167969 C 21.414062 16.167969 21.578125 16.003906 21.578125 15.800781 L 21.578125 4.742188 C 21.578125 4.003906 20.976562 3.398438 20.234375 3.398438 L 16.609375 3.398438 C 16.46875 3.113281 16.179688 2.910156 15.839844 2.910156 L 10.953125 2.910156 C 10.613281 2.910156 10.320312 3.113281 10.183594 3.398438 L 6.554688 3.398438 C 5.8125 3.398438 5.210938 4.003906 5.210938 4.742188 L 5.210938 22.335938 C 5.210938 23.074219 5.8125 23.679688 6.554688 23.679688 L 14.464844 23.679688 C 14.667969 23.679688 14.832031 23.515625 14.832031 23.3125 C 14.832031 23.109375 14.667969 22.945312 14.464844 22.945312 L 6.554688 22.945312 C 6.214844 22.945312 5.941406 22.671875 5.941406 22.335938 L 5.941406 4.742188 C 5.941406 4.40625 6.214844 4.132812 6.554688 4.132812 L 10.097656 4.132812 L 10.097656 5.355469 Z M 10.828125 3.765625 C 10.828125 3.699219 10.882812 3.644531 10.953125 3.644531 L 15.839844 3.644531 C 15.90625 3.644531 15.957031 3.699219 15.960938 3.761719 C 15.960938 3.765625 15.960938 3.765625 15.960938 3.765625 C 15.960938 3.769531 15.960938 3.769531 15.960938 3.773438 L 15.960938 5.714844 C 15.960938 5.714844 15.960938 5.71875 15.960938 5.722656 C 15.957031 5.789062 15.90625 5.84375 15.839844 5.84375 L 10.953125 5.84375 C 10.882812 5.84375 10.828125 5.789062 10.828125 5.71875 Z M 9.121094 8.992188 C 9.121094 8.789062 9.285156 8.625 9.484375 8.625 L 10.953125 8.625 C 11.152344 8.625 11.320312 8.789062 11.320312 8.992188 C 11.320312 9.191406 11.152344 9.355469 10.953125 9.355469 L 9.484375 9.355469 C 9.285156 9.355469 9.121094 9.191406 9.121094 8.992188 Z M 9.121094 10.945312 C 9.121094 10.742188 9.285156 10.578125 9.484375 10.578125 L 10.953125 10.578125 C 11.152344 10.578125 11.320312 10.742188 11.320312 10.945312 C 11.320312 11.148438 11.152344 11.3125 10.953125 11.3125 L 9.484375 11.3125 C 9.285156 11.3125 9.121094 11.148438 9.121094 10.945312 Z M 17.671875 12.898438 C 17.671875 13.101562 17.507812 13.265625 17.304688 13.265625 L 9.484375 13.265625 C 9.285156 13.265625 9.121094 13.101562 9.121094 12.898438 C 9.121094 12.699219 9.285156 12.535156 9.484375 12.535156 L 17.304688 12.535156 C 17.507812 12.535156 17.671875 12.699219 17.671875 12.898438 Z M 17.304688 15.222656 L 13.394531 15.222656 C 13.191406 15.222656 13.027344 15.058594 13.027344 14.855469 C 13.027344 14.652344 13.191406 14.488281 13.394531 14.488281 L 17.304688 14.488281 C 17.507812 14.488281 17.671875 14.652344 17.671875 14.855469 C 17.671875 15.058594 17.507812 15.222656 17.304688 15.222656 Z M 16.800781 16.441406 C 17.003906 16.441406 17.167969 16.605469 17.167969 16.808594 C 17.167969 17.011719 17.003906 17.175781 16.800781 17.175781 L 13.394531 17.175781 C 13.191406 17.175781 13.027344 17.011719 13.027344 16.808594 C 13.027344 16.605469 13.191406 16.441406 13.394531 16.441406 Z M 15.210938 18.761719 C 15.210938 18.964844 15.046875 19.128906 14.84375 19.128906 L 13.394531 19.128906 C 13.191406 19.128906 13.027344 18.964844 13.027344 18.761719 C 13.027344 18.558594 13.191406 18.394531 13.394531 18.394531 L 14.84375 18.394531 C 15.046875 18.394531 15.210938 18.558594 15.210938 18.761719 Z M 17.671875 10.945312 C 17.671875 11.148438 17.507812 11.3125 17.304688 11.3125 L 12.40625 11.3125 C 12.207031 11.3125 12.042969 11.148438 12.042969 10.945312 C 12.042969 10.742188 12.207031 10.578125 12.40625 10.578125 L 12.539062 10.578125 L 12.539062 9.527344 C 12.539062 9.324219 12.703125 9.160156 12.90625 9.160156 C 13.109375 9.160156 13.273438 9.324219 13.273438 9.527344 L 13.273438 10.578125 L 14.496094 10.578125 L 14.496094 8.746094 C 14.496094 8.542969 14.660156 8.378906 14.859375 8.378906 C 15.0625 8.378906 15.226562 8.542969 15.226562 8.746094 L 15.226562 10.578125 L 16.449219 10.578125 L 16.449219 8.011719 C 16.449219 7.8125 16.613281 7.648438 16.816406 7.648438 C 17.019531 7.648438 17.183594 7.8125 17.183594 8.011719 L 17.183594 10.578125 L 17.304688 10.578125 C 17.507812 10.578125 17.671875 10.742188 17.671875 10.945312 Z M 9.960938 15.882812 L 9.960938 16.035156 C 9.960938 16.179688 10.058594 16.304688 10.199219 16.339844 L 10.984375 16.535156 C 11.449219 16.652344 11.777344 17.070312 11.777344 17.550781 L 11.777344 17.699219 C 11.777344 18.230469 11.378906 18.664062 10.867188 18.734375 L 10.867188 19.0625 C 10.867188 19.265625 10.703125 19.429688 10.5 19.429688 C 10.300781 19.429688 10.136719 19.265625 10.136719 19.0625 L 10.136719 18.734375 C 9.625 18.664062 9.226562 18.230469 9.226562 17.699219 C 9.226562 17.5 9.390625 17.335938 9.59375 17.335938 C 9.796875 17.335938 9.960938 17.5 9.960938 17.699219 C 9.960938 17.875 10.101562 18.015625 10.273438 18.015625 L 10.730469 18.015625 C 10.902344 18.015625 11.042969 17.875 11.042969 17.699219 L 11.042969 17.550781 C 11.042969 17.40625 10.945312 17.28125 10.804688 17.246094 L 10.019531 17.050781 C 9.554688 16.933594 9.226562 16.515625 9.226562 16.035156 L 9.226562 15.882812 C 9.226562 15.355469 9.625 14.917969 10.136719 14.851562 L 10.136719 14.554688 C 10.136719 14.351562 10.300781 14.1875 10.5 14.1875 C 10.703125 14.1875 10.867188 14.351562 10.867188 14.554688 L 10.867188 14.851562 C 11.378906 14.917969 11.777344 15.355469 11.777344 15.882812 C 11.777344 16.085938 11.613281 16.25 11.410156 16.25 C 11.207031 16.25 11.042969 16.085938 11.042969 15.882812 C 11.042969 15.710938 10.902344 15.570312 10.730469 15.570312 L 10.273438 15.570312 C 10.101562 15.570312 9.960938 15.710938 9.960938 15.882812 Z M 24.46875 20.324219 L 23.457031 20.171875 C 23.453125 20.160156 23.445312 20.144531 23.441406 20.132812 L 24.050781 19.308594 C 24.160156 19.164062 24.144531 18.960938 24.015625 18.832031 L 22.851562 17.667969 C 22.722656 17.539062 22.519531 17.523438 22.371094 17.632812 L 21.550781 18.242188 C 21.535156 18.234375 21.523438 18.230469 21.507812 18.226562 L 21.359375 17.210938 C 21.332031 17.03125 21.175781 16.898438 20.996094 16.898438 L 19.347656 16.898438 C 19.167969 16.898438 19.011719 17.03125 18.984375 17.210938 L 18.835938 18.226562 C 18.820312 18.230469 18.808594 18.234375 18.792969 18.242188 L 17.972656 17.632812 C 17.824219 17.523438 17.625 17.539062 17.496094 17.667969 L 16.328125 18.832031 C 16.199219 18.960938 16.183594 19.164062 16.292969 19.308594 L 16.902344 20.132812 C 16.898438 20.144531 16.890625 20.160156 16.886719 20.171875 L 15.875 20.324219 C 15.695312 20.351562 15.5625 20.503906 15.5625 20.6875 L 15.5625 22.335938 C 15.5625 22.515625 15.695312 22.671875 15.875 22.695312 L 16.886719 22.847656 C 16.890625 22.863281 16.898438 22.875 16.902344 22.886719 L 16.292969 23.710938 C 16.183594 23.855469 16.199219 24.058594 16.328125 24.1875 L 17.496094 25.355469 C 17.625 25.480469 17.828125 25.496094 17.972656 25.390625 L 18.792969 24.78125 C 18.808594 24.785156 18.820312 24.792969 18.835938 24.796875 L 18.984375 25.808594 C 19.011719 25.988281 19.167969 26.121094 19.347656 26.121094 L 20.996094 26.121094 C 21.175781 26.121094 21.332031 25.988281 21.359375 25.808594 L 21.507812 24.796875 C 21.523438 24.792969 21.535156 24.785156 21.550781 24.78125 L 22.371094 25.390625 C 22.519531 25.496094 22.722656 25.480469 22.851562 25.355469 L 24.015625 24.1875 C 24.144531 24.058594 24.160156 23.855469 24.050781 23.710938 L 23.441406 22.890625 C 23.445312 22.875 23.453125 22.863281 23.457031 22.847656 L 24.46875 22.695312 C 24.648438 22.671875 24.78125 22.515625 24.78125 22.335938 L 24.78125 20.6875 C 24.78125 20.503906 24.648438 20.351562 24.46875 20.324219 Z M 24.050781 22.019531 L 23.136719 22.15625 C 23 22.175781 22.886719 22.269531 22.84375 22.402344 C 22.800781 22.527344 22.75 22.648438 22.691406 22.769531 C 22.628906 22.890625 22.640625 23.039062 22.722656 23.148438 L 23.273438 23.894531 L 22.554688 24.613281 L 21.8125 24.0625 C 21.699219 23.980469 21.550781 23.964844 21.429688 24.027344 C 21.3125 24.085938 21.1875 24.140625 21.0625 24.179688 C 20.933594 24.226562 20.835938 24.339844 20.816406 24.476562 L 20.679688 25.390625 L 19.664062 25.390625 L 19.527344 24.476562 C 19.507812 24.339844 19.414062 24.226562 19.28125 24.179688 C 19.15625 24.140625 19.03125 24.085938 18.914062 24.027344 C 18.792969 23.964844 18.644531 23.980469 18.53125 24.0625 L 17.789062 24.613281 L 17.070312 23.894531 L 17.621094 23.148438 C 17.703125 23.039062 17.714844 22.890625 17.65625 22.769531 C 17.59375 22.648438 17.542969 22.527344 17.5 22.402344 C 17.457031 22.269531 17.34375 22.175781 17.207031 22.15625 L 16.292969 22.019531 L 16.292969 21.003906 L 17.207031 20.867188 C 17.34375 20.847656 17.457031 20.75 17.5 20.621094 C 17.542969 20.492188 17.59375 20.371094 17.65625 20.253906 C 17.714844 20.128906 17.703125 19.980469 17.621094 19.871094 L 17.070312 19.128906 L 17.789062 18.410156 L 18.53125 18.960938 C 18.644531 19.042969 18.792969 19.054688 18.914062 18.992188 C 19.03125 18.933594 19.15625 18.882812 19.28125 18.839844 C 19.414062 18.796875 19.507812 18.683594 19.527344 18.546875 L 19.664062 17.632812 L 20.679688 17.632812 L 20.816406 18.546875 C 20.835938 18.683594 20.933594 18.796875 21.0625 18.839844 C 21.1875 18.882812 21.3125 18.933594 21.429688 18.992188 C 21.550781 19.054688 21.699219 19.042969 21.8125 18.960938 L 22.554688 18.410156 L 23.273438 19.128906 L 22.722656 19.871094 C 22.640625 19.980469 22.628906 20.128906 22.691406 20.253906 C 22.75 20.371094 22.800781 20.492188 22.84375 20.621094 C 22.886719 20.75 23 20.847656 23.136719 20.867188 L 24.050781 21.003906 Z M 20.171875 19.699219 C 19.171875 19.699219 18.359375 20.511719 18.359375 21.511719 C 18.359375 22.507812 19.171875 23.320312 20.171875 23.320312 C 21.171875 23.320312 21.984375 22.507812 21.984375 21.511719 C 21.984375 20.511719 21.171875 19.699219 20.171875 19.699219 Z M 20.171875 22.589844 C 19.578125 22.589844 19.09375 22.105469 19.09375 21.511719 C 19.09375 20.917969 19.578125 20.433594 20.171875 20.433594 C 20.765625 20.433594 21.25 20.917969 21.25 21.511719 C 21.25 22.105469 20.765625 22.589844 20.171875 22.589844 Z M 20.171875 22.589844 " fill-opacity="1" fill-rule="nonzero"/></g></svg>