<svg xmlns="http://www.w3.org/2000/svg" xmlns:xlink="http://www.w3.org/1999/xlink" width="455" zoomAndPan="magnify" viewBox="0 0 341.25 143.999998" height="192" preserveAspectRatio="xMidYMid meet" version="1.0"><defs><clipPath id="1815a086e3"><path d="M 273.054688 41.316406 L 340.035156 41.316406 L 340.035156 104.925781 L 273.054688 104.925781 Z M 273.054688 41.316406 " clip-rule="nonzero"/></clipPath><clipPath id="299554f032"><path d="M 11.132812 0.273438 L 53.789062 0.273438 L 53.789062 32 L 11.132812 32 Z M 11.132812 0.273438 " clip-rule="nonzero"/></clipPath><clipPath id="25a865bf82"><path d="M 241 117 L 259.585938 117 L 259.585938 143.722656 L 241 143.722656 Z M 241 117 " clip-rule="nonzero"/></clipPath></defs><g clip-path="url(#1815a086e3)"><path fill="#ffffff" d="M 291.996094 78.253906 C 293.164062 85.128906 299.65625 89.371094 306.261719 90.222656 C 313.695312 91.1875 320.101562 89.441406 325.875 84.746094 C 328.382812 87.328125 331.199219 89.941406 333.578125 92.625 C 333.957031 93.054688 335.453125 94.6875 335.34375 95.097656 C 335.121094 95.914062 330.207031 99.425781 329.210938 100.007812 C 318.617188 106.214844 302.140625 106.1875 291.117188 101.050781 C 263.925781 88.390625 269.058594 48.957031 298.226562 42.449219 C 320.691406 37.433594 341.761719 51.550781 339.917969 75.742188 C 339.863281 76.476562 339.726562 77.75 339.324219 78.257812 L 291.996094 78.257812 Z M 322.667969 67.714844 C 320.046875 50.703125 294.210938 50.703125 291.519531 67.714844 Z M 322.667969 67.714844 " fill-opacity="1" fill-rule="nonzero"/></g><path fill="#ffffff" d="M 150.34375 41.421875 C 171.519531 41.273438 187.636719 57.425781 183.855469 79.015625 C 177.984375 112.589844 125.636719 113.511719 117.761719 81.042969 C 112.441406 59.089844 128.597656 41.582031 150.335938 41.421875 Z M 147.933594 56.289062 C 130.96875 58.195312 130.054688 87.113281 147.6875 89.933594 C 157.042969 91.429688 165.0625 85.636719 166.125 76.15625 C 167.484375 64.125 160.621094 54.863281 147.929688 56.292969 Z M 147.933594 56.289062 " fill-opacity="1" fill-rule="nonzero"/><path fill="#ffffff" d="M 98.152344 28.917969 L 98.152344 43.765625 L 113.246094 43.765625 L 113.246094 57.417969 L 98.152344 57.417969 L 98.152344 84.125 C 98.152344 84.457031 98.804688 86.457031 98.992188 86.875 C 100.59375 90.410156 104.566406 90.882812 108.039062 90.410156 C 109.933594 90.152344 111.445312 88.96875 113.25 88.554688 C 113.347656 90.578125 117.824219 99.671875 117.535156 100.84375 C 117.292969 101.8125 111.898438 103.640625 110.769531 103.917969 C 100.539062 106.390625 86.667969 104.105469 82.222656 93.34375 C 81.640625 91.929688 80.425781 87.921875 80.425781 86.519531 L 80.425781 28.917969 L 98.15625 28.917969 Z M 98.152344 28.917969 " fill-opacity="1" fill-rule="nonzero"/><path fill="#ffffff" d="M -0.09375 103.882812 L 5.300781 70.109375 L 64.941406 91.636719 L 66.761719 103.882812 Z M -0.09375 103.882812 " fill-opacity="1" fill-rule="nonzero"/><path fill="#0ae2ea" d="M 62.683594 76.816406 L 7.328125 56.8125 L 8.652344 46.878906 L 55.273438 29.976562 Z M 62.683594 76.816406 " fill-opacity="1" fill-rule="nonzero"/><path fill="#ffffff" d="M 273.308594 57.894531 C 267.863281 57.480469 261.363281 57.710938 257.257812 61.851562 C 255.367188 63.757812 252.941406 68.765625 252.941406 71.425781 L 252.941406 103.875 L 234.972656 103.875 L 234.972656 42.320312 L 251.980469 42.320312 L 251.980469 50.226562 C 254.589844 47.425781 257.257812 45.128906 260.855469 43.648438 C 264.710938 42.0625 268.613281 41.675781 272.730469 41.378906 C 272.933594 41.324219 273.308594 41.625 273.308594 41.726562 Z M 273.308594 57.894531 " fill-opacity="1" fill-rule="nonzero"/><path fill="#ffffff" d="M 228.742188 41.609375 L 228.742188 57.894531 C 222.648438 57.402344 216.160156 57.777344 211.976562 62.8125 C 210.230469 64.917969 208.378906 69.429688 208.378906 72.148438 L 208.378906 103.882812 L 190.644531 103.882812 L 190.644531 42.324219 L 207.296875 42.324219 C 207.296875 42.324219 207.65625 42.664062 207.65625 42.683594 L 207.65625 50.234375 C 212.65625 43.871094 220.808594 41.273438 228.742188 41.609375 Z M 228.742188 41.609375 " fill-opacity="1" fill-rule="nonzero"/><g clip-path="url(#299554f032)"><path fill="#0ae2ea" d="M 50.691406 0.1875 L 53.070312 16.664062 L 11.167969 31.785156 L 15.976562 0.1875 Z M 50.691406 0.1875 " fill-opacity="1" fill-rule="nonzero"/></g><path fill="#ffffff" d="M 272.546875 117.121094 C 287.207031 116.460938 286.390625 141.515625 270.898438 138.742188 C 260.34375 136.855469 260.660156 117.652344 272.546875 117.121094 Z M 269.558594 133.738281 C 270.746094 135.015625 272.917969 135.269531 274.570312 134.960938 C 278.972656 134.152344 279.332031 126.035156 277.246094 123.058594 C 275.871094 121.09375 273.433594 120.511719 271.210938 121.308594 C 267.085938 122.800781 266.941406 130.917969 269.554688 133.738281 Z M 269.558594 133.738281 " fill-opacity="1" fill-rule="nonzero"/><path fill="#ffffff" d="M 130.613281 117.535156 C 133.78125 117.84375 136.851562 119.472656 137.203125 122.929688 C 137.515625 126 136.550781 129.007812 133.375 129.992188 C 133.378906 130.105469 133.339844 130.238281 133.375 130.339844 C 133.503906 130.691406 135 132.542969 135.414062 133.332031 C 136.222656 134.871094 137.089844 136.949219 137.441406 138.609375 L 133.25 138.609375 C 131.527344 135.828125 131.019531 130.996094 126.898438 130.945312 L 126.898438 138.609375 L 122.820312 138.609375 L 122.820312 117.535156 C 125.324219 117.707031 128.136719 117.292969 130.609375 117.535156 Z M 126.902344 127.351562 L 130.613281 127.351562 C 130.675781 127.351562 131.617188 126.929688 131.773438 126.835938 C 133.417969 125.847656 133.601562 123.359375 132.414062 121.957031 C 132.109375 121.605469 130.984375 120.882812 130.613281 120.882812 L 126.902344 120.882812 Z M 126.902344 127.351562 " fill-opacity="1" fill-rule="nonzero"/><path fill="#ffffff" d="M 99.347656 138.609375 L 106.316406 117.914062 C 106.910156 117.097656 110.53125 117.753906 111.660156 117.523438 L 118.992188 138.617188 L 114.324219 138.617188 C 113.503906 136.769531 113.003906 134.644531 112.5 132.648438 L 105.785156 132.769531 L 104.136719 138.617188 L 99.339844 138.617188 Z M 111.328125 129.027344 C 110.605469 127 110.238281 124.371094 109.425781 122.429688 C 109.328125 122.1875 109.253906 121.875 108.933594 121.84375 L 107.015625 129.027344 Z M 111.328125 129.027344 " fill-opacity="1" fill-rule="nonzero"/><g clip-path="url(#25a865bf82)"><path fill="#ffffff" d="M 259.410156 121.839844 L 256.175781 123.757812 C 254.683594 121.367188 252.851562 120.640625 250.054688 121.234375 C 245.476562 122.203125 245.203125 130.882812 247.914062 133.703125 C 249.390625 135.238281 252.617188 135.527344 254.371094 134.410156 C 254.945312 134.046875 255.855469 132.582031 256.164062 132.617188 C 257.015625 132.707031 258.488281 134.152344 259.421875 134.425781 C 258.117188 136.882812 255.535156 138.699219 252.703125 138.859375 C 253.421875 143.703125 249.015625 144.167969 245.277344 143.644531 L 245.277344 140.527344 C 247.03125 140.601562 249.300781 141.261719 249.363281 138.75 C 239.136719 136.648438 238.953125 119.832031 249.101562 117.402344 C 253.15625 116.4375 257.605469 117.945312 259.417969 121.839844 Z M 259.410156 121.839844 " fill-opacity="1" fill-rule="nonzero"/></g><path fill="#ffffff" d="M 219.152344 138.609375 L 226.21875 117.769531 C 226.683594 117.207031 230.316406 117.714844 231.265625 117.519531 L 238.808594 138.609375 L 234.011719 138.609375 L 232.316406 132.644531 L 225.773438 132.605469 L 223.953125 138.609375 Z M 226.824219 129.027344 L 231.136719 129.027344 L 228.859375 121.839844 L 226.820312 129.027344 Z M 226.824219 129.027344 " fill-opacity="1" fill-rule="nonzero"/><path fill="#ffffff" d="M 301.824219 117.535156 L 301.824219 121.128906 L 292.722656 121.128906 L 292.722656 125.917969 L 300.386719 125.917969 L 300.386719 129.507812 L 292.722656 129.507812 L 292.722656 135.015625 L 301.824219 135.015625 L 301.824219 138.609375 L 288.402344 138.609375 L 288.402344 117.535156 Z M 301.824219 117.535156 " fill-opacity="1" fill-rule="nonzero"/><path fill="#ffffff" d="M 207.175781 131.421875 L 207.175781 138.609375 L 202.863281 138.609375 L 202.863281 117.535156 L 210.890625 117.535156 C 211.011719 117.535156 212.449219 117.8125 212.703125 117.878906 C 216.875 118.929688 218.261719 122.714844 217.121094 126.632812 C 215.875 130.90625 210.96875 131.355469 207.175781 131.421875 Z M 207.175781 127.835938 C 209.859375 127.933594 213.351562 127.859375 213.351562 124.363281 C 213.351562 122.984375 212.128906 120.890625 210.644531 120.890625 L 207.167969 120.890625 L 207.167969 127.839844 Z M 207.175781 127.835938 " fill-opacity="1" fill-rule="nonzero"/><path fill="#ffffff" d="M 87.363281 131.421875 L 87.363281 138.242188 C 87.363281 138.242188 87.027344 138.605469 87.003906 138.605469 L 83.054688 138.605469 L 83.054688 117.53125 L 90.839844 117.53125 C 91.363281 117.53125 93.171875 117.996094 93.761719 118.203125 C 97.273438 119.4375 98.257812 123.003906 97.316406 126.394531 C 96.078125 130.855469 91.328125 131.304688 87.371094 131.414062 Z M 87.128906 127.835938 C 89.847656 127.964844 93.550781 127.957031 93.550781 124.363281 C 93.550781 122.984375 92.324219 120.890625 90.839844 120.890625 L 87.128906 120.890625 L 87.128906 127.839844 Z M 87.128906 127.835938 " fill-opacity="1" fill-rule="nonzero"/><path fill="#ffffff" d="M 184.417969 123.761719 C 183.726562 120.867188 179.472656 120.402344 177.285156 121.789062 C 172.953125 124.542969 173.527344 136.292969 181.359375 134.964844 C 183.039062 134.679688 183.671875 133.574219 184.765625 132.617188 C 186.550781 133.960938 188.914062 133.710938 186.800781 136.09375 C 180.992188 142.652344 170.71875 137.679688 170.035156 129.152344 C 169.375 120.898438 177.253906 113.800781 184.863281 118.398438 C 185.617188 118.851562 188.382812 121.085938 187.519531 121.96875 C 187.398438 122.097656 184.550781 123.875 184.410156 123.761719 Z M 184.417969 123.761719 " fill-opacity="1" fill-rule="nonzero"/><path fill="#ffffff" d="M 317.636719 122.5625 C 316.132812 120.78125 309.53125 120 309.738281 123.144531 C 309.871094 125.25 315.214844 126.277344 316.929688 127.234375 C 318.398438 128.054688 319.929688 129.367188 320.21875 131.125 C 321.453125 138.453125 314.132812 140.195312 308.542969 138.011719 C 308.179688 137.871094 306.28125 136.976562 306.136719 136.820312 C 305.375 135.980469 306.78125 133.882812 306.859375 132.867188 C 308.933594 134.328125 311.085938 135.28125 313.699219 135.035156 C 315.410156 134.871094 316.78125 133.351562 315.828125 131.691406 C 314.386719 129.183594 306.777344 129.332031 305.957031 124.546875 C 304.796875 117.71875 313.023438 115.359375 317.8125 118.453125 C 319.8125 119.742188 317.832031 120.679688 317.640625 122.570312 Z M 317.636719 122.5625 " fill-opacity="1" fill-rule="nonzero"/><path fill="#ffffff" d="M 156.378906 117.535156 L 156.378906 121.003906 C 156.378906 121.003906 156.039062 121.363281 156.015625 121.363281 L 150.625 121.363281 L 150.625 138.609375 L 146.3125 138.609375 L 146.3125 121.363281 L 140.800781 121.363281 L 140.800781 117.535156 Z M 156.378906 117.535156 " fill-opacity="1" fill-rule="nonzero"/><path fill="#ffffff" d="M 160.449219 138.609375 L 160.449219 117.535156 L 164.402344 117.535156 C 164.402344 117.535156 164.757812 117.871094 164.757812 117.890625 L 164.757812 138.25 C 164.757812 138.25 164.421875 138.609375 164.402344 138.609375 Z M 160.449219 138.609375 " fill-opacity="1" fill-rule="nonzero"/><path fill="#ffffff" d="M 192.558594 138.609375 L 192.558594 117.535156 L 196.511719 117.535156 C 196.511719 117.535156 196.871094 117.871094 196.871094 117.890625 L 196.871094 138.25 C 196.871094 138.25 196.53125 138.609375 196.511719 138.609375 Z M 192.558594 138.609375 " fill-opacity="1" fill-rule="nonzero"/><path fill="#ffffff" d="M 277.359375 112.535156 C 277.457031 112.589844 278.292969 114.21875 278.5625 114.507812 C 277.582031 115.777344 276.011719 116.242188 274.449219 116.03125 C 272.921875 115.824219 272.167969 114.757812 270.359375 115.183594 C 269.953125 115.28125 269.246094 116.019531 269 115.851562 C 268.914062 115.789062 268.035156 114.140625 268.027344 114.042969 C 267.9375 112.980469 269.964844 112.136719 270.847656 112.082031 C 272.785156 111.96875 273.976562 113.800781 276.011719 113.171875 C 276.40625 113.054688 276.804688 112.210938 277.351562 112.535156 Z M 277.359375 112.535156 " fill-opacity="1" fill-rule="nonzero"/></svg>